<?xml version="1.0" encoding="utf-8"?>
<!-- Generator: Adobe Illustrator 16.0.0, SVG Export Plug-In . SVG Version: 6.00 Build 0)  -->
<!DOCTYPE svg PUBLIC "-//W3C//DTD SVG 1.1//EN" "http://www.w3.org/Graphics/SVG/1.1/DTD/svg11.dtd">
<svg version="1.1" id="Layer_1" xmlns="http://www.w3.org/2000/svg" xmlns:xlink="http://www.w3.org/1999/xlink" x="0px" y="0px"
	 width="40px" height="40px" viewBox="0 0 40 40" enable-background="new 0 0 40 40" xml:space="preserve">
<polyline fill="none" stroke="#000000" stroke-width="2" stroke-miterlimit="10" points="1,0 1,13 5,13 5,9 13,9 13,5 17,5 17,33 
	13,33 13,29 5,29 5,25 1,25 1,40 "/>
<polyline fill="none" stroke="#000000" stroke-width="2" stroke-miterlimit="10" points="37,40 37,25 33,25 33,29 25,29 25,33 
	21,33 21,5 25,5 25,9 33,9 33,13 37,13 37,0 "/>
<polyline fill="none" stroke="#000000" stroke-width="2" stroke-miterlimit="10" points="0,17 13,17 13,13 9,13 9,5 5,5 5,1 33,1 
	33,5 29,5 29,13 25,13 25,17 40,17 "/>
<polyline fill="none" stroke="#000000" stroke-width="2" stroke-miterlimit="10" points="40,20.999 25,20.999 25,25 29,25 29,33 
	33,33 33,37 5,37 5,33 9,33 9,25 13,25 13,20.999 0,20.999 "/>
</svg>
